<?xml version="1.0" encoding="UTF-8" standalone="no"?>
<!-- Created with Inkscape (http://www.inkscape.org/) -->

<svg
   version="1.1"
   id="svg1"
   width="261.33334"
   height="300"
   viewBox="0 0 261.33334 300"
   sodipodi:docname="ic_printer.svg"
   inkscape:version="1.4 (86a8ad7, 2024-10-11)"
   xmlns:inkscape="http://www.inkscape.org/namespaces/inkscape"
   xmlns:sodipodi="http://sodipodi.sourceforge.net/DTD/sodipodi-0.dtd"
   xmlns="http://www.w3.org/2000/svg"
   xmlns:svg="http://www.w3.org/2000/svg">
  <defs
     id="defs1" />
  <sodipodi:namedview
     id="namedview1"
     pagecolor="#ffffff"
     bordercolor="#000000"
     borderopacity="0.25"
     inkscape:showpageshadow="2"
     inkscape:pageopacity="0.0"
     inkscape:pagecheckerboard="0"
     inkscape:deskcolor="#d1d1d1"
     inkscape:zoom="2.69"
     inkscape:cx="204.27509"
     inkscape:cy="150"
     inkscape:window-width="1920"
     inkscape:window-height="1009"
     inkscape:window-x="-8"
     inkscape:window-y="-8"
     inkscape:window-maximized="1"
     inkscape:current-layer="g1" />
  <g
     inkscape:groupmode="layer"
     inkscape:label="Image"
     id="g1">
    <path
       style="fill:#000000"
       d="m 2.1043502,302.05741 c -0.35055,-0.9203 -0.48285,-68.27327 -0.29402,-149.67327 L 2.1536602,4.384139 H 132.15366 262.15367 V 153.71747 303.0508 l -129.70599,0.33994 C 29.38697,303.66085 2.6107702,303.38674 2.1043502,302.05741 Z M 258.82033,153.71747 V 7.717472 H 132.15366 5.4869902 v 145.999998 146 H 132.15366 258.82033 Z M 10.82032,165.0508 V 41.050805 H 132.15366 253.487 v 123.999995 124 H 132.15366 10.82032 Z m 53.33334,115.33334 v -4.66667 H 77.48699 90.82033 V 237.0508 198.38414 h 38.66666 c 30.04943,0 38.66459,-0.37144 38.65733,-1.66667 -0.0221,-3.94053 -5.46584,-23.69898 -8.71078,-31.61638 -9.34416,-22.79893 -25.41493,-49.38362 -29.85302,-49.38362 -2.29852,0 -2.68337,-1.05847 -3.0299,-8.33333 l -0.39696,-8.333337 -7.66667,-0.39987 -7.66666,-0.39987 v -9.93346 -9.93346 h -48.00001 -48 V 181.71747 285.0508 h 24.66667 24.66667 z m 134.66667,2 c 0,-2.63039 -0.88889,-2.66667 -65.33333,-2.66667 -64.44445,0 -65.33334,0.0363 -65.33334,2.66667 0,2.63038 0.88889,2.66666 65.33334,2.66666 64.44444,0 65.33333,-0.0363 65.33333,-2.66666 z M 249.487,181.71747 V 78.384143 h -48.66667 -48.66667 v 10 10 h -6.55725 -6.55726 l -0.44274,9.522957 c -0.36918,7.9406 0.0229,10.2115 2.35941,13.66667 12.48648,18.46439 24.43141,45.17545 29.16975,65.22895 3.17438,13.43455 3.36143,16.30412 3.36143,51.57045 v 37.3443 h 14.66666 14.66667 v 4.66667 4.66666 h 23.33334 23.33333 z m -80.31083,55.66667 -0.35584,-34.33334 -37,-0.35442 -37,-0.35443 v 34.68776 34.68776 h 37.35584 37.35585 z M 134.82033,105.0508 c 0,-5.03703 -0.48889,-6.666657 -2,-6.666657 -1.51111,0 -2,1.629627 -2,6.666657 0,5.03704 0.48889,6.66667 2,6.66667 1.51111,0 2,-1.62963 2,-6.66667 z M 148.15366,78.343103 V 60.968728 l -16.33333,0.374372 -16.33334,0.374372 -0.37935,15.251811 c -0.20865,8.38849 -0.0775,16.03849 0.29148,17 0.50193,1.30799 4.71023,1.74819 16.7127,1.74819 h 16.04184 z M 110.82033,67.717472 v -6.666667 h -48.00001 -48 v 6.666667 6.666671 h 48 48.00001 z M 249.487,67.700842 v -6.683301 l -48.33334,0.349965 -48.33333,0.349966 -0.40639,6.333333 -0.40639,6.333338 h 48.73973 48.73972 z m 0,-15.98337 V 45.050805 H 132.15366 14.82032 v 6.666667 6.666667 H 132.15366 249.487 Z m -177.33334,-28 V 9.050805 h 54 54 v 14.666667 14.666667 h -54 -54 z m 22.66667,0 V 13.050805 h -9.33334 -9.33333 v 10.666667 10.666667 h 9.33333 9.33334 z m 26.66666,0 V 13.050805 h -9.33333 -9.33333 v 10.666667 10.666667 h 9.33333 9.33333 z m 28.00001,0 V 13.050805 h -10 -10.00001 v 10.666667 10.666667 h 10.00001 10 z m 26.66666,0 V 13.050805 h -9.33333 -9.33333 v 10.666667 10.666667 h 9.33333 9.33333 z M 39.82029,34.277324 c -3.73986,-2.178272 -6.60879,-8.936918 -5.64883,-13.307589 1.08063,-4.920049 6.51115,-9.252263 11.59791,-9.252263 5.44678,0 11.71762,6.421958 11.71762,12 0,8.383959 -10.56269,14.697556 -17.6667,10.559852 z m 12.29177,-6.893185 c 1.83324,-3.292461 1.83324,-4.040873 0,-7.333334 -2.77479,-4.983468 -9.47581,-5.758248 -12.49699,-1.444916 -2.68703,3.836274 -2.68703,6.386892 0,10.223166 3.02118,4.313332 9.7222,3.538552 12.49699,-1.444916 z m 142.70827,-3.666667 v -12 h 25.33334 25.33333 v 12 12 h -25.33333 -25.33334 z m 46.66667,0 v -8 h -21.33333 -21.33334 v 8 8 h 21.33334 21.33333 z"
       id="path1" />
  </g>
</svg>
